<?xml version="1.0" encoding="utf-8"?>
<!-- Generator: Adobe Illustrator 19.1.0, SVG Export Plug-In . SVG Version: 6.00 Build 0)  -->
<!DOCTYPE svg PUBLIC "-//W3C//DTD SVG 1.1//EN" "http://www.w3.org/Graphics/SVG/1.1/DTD/svg11.dtd">
<svg version="1.1" id="Layer_2" xmlns="http://www.w3.org/2000/svg" xmlns:xlink="http://www.w3.org/1999/xlink" x="0px" y="0px"
	 viewBox="0 0 120 120" enable-background="new 0 0 120 120" xml:space="preserve">
<g>
	
		<rect x="83.4" y="49.8" transform="matrix(0.3192 0.9477 -0.9477 0.3192 107.6563 -44.169)" fill="#015599" width="2.4" height="6"/>
	
		<rect x="34.1" y="51.7" transform="matrix(0.9398 0.3417 -0.3417 0.9398 20.3081 -9.4915)" fill="#015599" width="6" height="2.4"/>
	
		<rect x="37.8" y="44.6" transform="matrix(0.8028 0.5962 -0.5962 0.8028 35.3743 -15.3174)" fill="#015599" width="6" height="2.4"/>
	<rect x="43.1" y="39.5" transform="matrix(0.5974 0.8019 -0.8019 0.5974 51.191 -20.552)" fill="#015599" width="6" height="2.4"/>
	
		<rect x="51.8" y="33.9" transform="matrix(-0.948 0.3183 -0.3183 -0.948 115.0016 55.0516)" fill="#015599" width="2.4" height="6"/>
	
		<rect x="59.5" y="32.5" transform="matrix(-0.9999 -1.619282e-002 1.619282e-002 -0.9999 120.8219 71.9809)" fill="#015599" width="2.4" height="6"/>
	
		<rect x="67.4" y="33.9" transform="matrix(0.9544 0.2984 -0.2984 0.9544 14.1396 -18.7909)" fill="#015599" width="2.4" height="6"/>
	
		<rect x="72.7" y="39.4" transform="matrix(-0.6009 0.7993 -0.7993 -0.6009 153.678 4.4455)" fill="#015599" width="6" height="2.4"/>
	
		<rect x="78" y="44.6" transform="matrix(-0.8277 0.5611 -0.5611 -0.8277 173.6999 38.2123)" fill="#015599" width="6" height="2.4"/>
	<path fill="#015599" d="M60.7,58.3c-0.2,0-0.3,0-0.5,0l-5-16.3l-1,0.3l4.1,16.4c-2.7,0.7-5,2.5-5,3.5c0,1.3,2.3,4.1,3.5,4.1
		s1.5-1.2,3.9-1.3c2.4-0.1,2.8,1.3,4.1,1.3s3.4-1.8,3.4-4.1C68.1,61.1,64.2,58.3,60.7,58.3z"/>
	<path fill="#015599" d="M60.7,23.8c-20,0-36.2,16.2-36.2,36.2s16.2,36.2,36.2,36.2S96.8,80,96.8,60S80.7,23.8,60.7,23.8z M76,82.1
		c0,0.5-0.5,1-1,1H46.3c-0.5,0-1-0.5-1-1v-5c0-0.5,0.5-1,1-1H75c0.5,0,1,0.5,1,1V82.1z M83.5,68.3H37.9c-4.3,0-7.8-3.4-8-7.7
		c0-0.2,0-0.4,0-0.6c0-17,13.8-30.8,30.8-30.8S91.5,43,91.5,60c0,0.2,0,0.4,0,0.6C91.3,64.9,87.8,68.3,83.5,68.3z"/>
</g>
</svg>
