<?xml version="1.0" encoding="utf-8"?>
<!-- Generator: Adobe Illustrator 19.1.0, SVG Export Plug-In . SVG Version: 6.00 Build 0)  -->
<!DOCTYPE svg PUBLIC "-//W3C//DTD SVG 1.1//EN" "http://www.w3.org/Graphics/SVG/1.1/DTD/svg11.dtd">
<svg version="1.1" id="Layer_2" xmlns="http://www.w3.org/2000/svg" xmlns:xlink="http://www.w3.org/1999/xlink" x="0px" y="0px"
	 viewBox="0 0 120 120" enable-background="new 0 0 120 120" xml:space="preserve">
<path fill="#015599" d="M100,62.4c0-4.8-2.8-9-6.8-11C93,33.5,78.5,19.1,60.6,19.1S28.2,33.5,28,51.4c-4,2-6.8,6.2-6.8,11
	c0,6.6,5.3,12,11.9,12.2V75c0,1.3,1,2.3,2.3,2.3H36c0,0-0.7,9.5,5.1,15.2c4.4,4.3,10.5,4.9,13.1,4.9c1.2,1.9,4.1,3.2,7.4,3.2
	c4.4,0,8-2.3,8-5.1c0-2.9-3.6-5.1-8-5.1c-3.5,0-6.5,1.5-7.6,3.5c-2.2,0-6.4-0.5-9.8-3.9c-5.6-5.3-4.4-12.6-4.4-12.6h1.1
	c1.2,0,2.3-1,2.3-2.3V50.5c0-1.3-1.1-2.3-2.3-2.3h-5.5c-1.1,0-2,0.8-2.3,2l0,0c0.8-14.5,12.8-25.9,27.5-25.9
	C75.2,24.3,87.1,35.6,88,50c-0.2-1-1.1-1.7-2.2-1.7h-5.5c-1.3,0-2.3,1-2.3,2.3V75c0,1.3,1,2.3,2.3,2.3h5.5c1.2,0,2.3-1,2.3-2.3v-0.3
	C94.7,74.5,100,69.1,100,62.4z"/>
</svg>
