<?xml version="1.0" encoding="utf-8"?>
<!-- Generator: Adobe Illustrator 19.1.0, SVG Export Plug-In . SVG Version: 6.00 Build 0)  -->
<!DOCTYPE svg PUBLIC "-//W3C//DTD SVG 1.1//EN" "http://www.w3.org/Graphics/SVG/1.1/DTD/svg11.dtd">
<svg version="1.1" id="Layer_2" xmlns="http://www.w3.org/2000/svg" xmlns:xlink="http://www.w3.org/1999/xlink" x="0px" y="0px"
	 viewBox="0 0 120 120" enable-background="new 0 0 120 120" xml:space="preserve">
<path fill="#015599" d="M43.8,69.8c0,0,0.3-3.7,1.5-6c1.2-2.2,3.5-3.5,4.3-3.8c1-0.3,4.7-2.1,4.7-2.1s1.3,1.5,2.2,2.2
	c1.2,0.9,2.5,1,3.4,1c0.9,0,2.6-0.3,3.7-1.4c0.7-0.7,1.7-2,1.7-2s3.9,1.6,5,2.2c1,0.5,3.3,1.4,4.6,4.1c1.4,2.9,1.4,5.6,1.4,5.6
	s-4,2.7-16.1,2.7S43.8,69.8,43.8,69.8z M52.1,49c-0.1,1,0.3,2.6,0.8,3.4s1.5,1.5,1.5,1.5s0.1,1,0.8,2c0.7,1,2.9,3.1,5.3,3.1
	c2.3,0,4.1-2.4,4.7-3.4c0.4-1,0.8-1.8,0.8-1.8s1.1-1.2,1.5-2.1c0.3-0.9,0.5-2,0.5-2.8s-0.5-1.2-0.5-1.2s-4,1-7.2,1
	c-3.1,0-7.2-1-7.2-1S52.1,48.1,52.1,49z M51.4,43.4c0,0-0.3,0.3-0.2,0.8c0.1,0.4,0.4,0.7,1,1c0.4,0.3,2.6,1.5,7.6,1.5
	s7.6-1.1,8.1-1.5c0.5-0.3,1-0.8,1-1.1c0.1-0.3-0.3-0.5-0.3-0.5l-1-0.8c0,0,0-2.3-1.5-4.3c-2.1-2.8-5-3.1-5-3.1v-0.3
	c0,0,0-0.3-0.1-0.3c-0.2-0.2-0.5-0.1-0.5-0.1h-1.3c0,0-0.7-0.1-0.9,0.1S58,34.9,58,34.9v0.3c0,0-2.3,0.5-4.2,2.5s-1.8,5.2-1.8,5.2
	L51.4,43.4z"/>
<path fill="#015599" d="M104.6,84H15.3c-1.5,0-2.8,1.2-2.8,2.8v4c0,1.5,1.2,2.8,2.8,2.8h89.4c1.5,0,2.8-1.3,2.8-2.8v-4
	C107.4,85.3,106.1,84,104.6,84z M69.3,90.3H51.4c-0.9,0-1.5-0.8-1.5-1.5c0-0.9,0.8-1.5,1.5-1.5h17.9c0.9,0,1.5,0.8,1.5,1.5
	C70.9,89.6,70.1,90.3,69.3,90.3z"/>
<path fill="#015599" d="M97.8,26.4H22.3c-1.5,0-2.8,1.2-2.8,2.8V79c0,1.5,1.2,2.8,2.8,2.8h75.3c1.5,0,2.8-1.3,2.8-2.8V29.2
	C100.5,27.7,99.3,26.4,97.8,26.4z M93.4,75.9c0,0.4-0.4,1-1,1H27.7c-0.4,0-1-0.4-1-1V32.2c0-0.4,0.4-1,1-1h64.9c0.4,0,1,0.4,1,1
	L93.4,75.9L93.4,75.9z"/>
</svg>
