<?xml version="1.0" encoding="utf-8"?>
<!-- Generator: Adobe Illustrator 19.1.0, SVG Export Plug-In . SVG Version: 6.00 Build 0)  -->
<!DOCTYPE svg PUBLIC "-//W3C//DTD SVG 1.1//EN" "http://www.w3.org/Graphics/SVG/1.1/DTD/svg11.dtd">
<svg version="1.1" id="Layer_2" xmlns="http://www.w3.org/2000/svg" xmlns:xlink="http://www.w3.org/1999/xlink" x="0px" y="0px"
	 viewBox="0 0 120 120" enable-background="new 0 0 120 120" xml:space="preserve">
<path fill="#015599" d="M74.4,16L14.9,51c-2.4,1.4-3.2,4.5-1.8,6.8l23.3,39.7c1.4,2.4,4.5,3.2,6.8,1.8l24.6-14.4l-3.4-2.7L44.8,93.8
	c-0.5,0.3-1.1,0.1-1.4-0.4L20.1,53.8c-0.3-0.5-0.1-1.1,0.4-1.4L72.1,22c0.5-0.3,1.1-0.1,1.4,0.4L96.8,62c0.3,0.5,0.1,1.1-0.4,1.4
	l-0.3,0.2l2,3.4l4.6-2.7c2.4-1.4,3.2-4.5,1.8-6.8L81.3,17.8C79.9,15.4,76.8,14.6,74.4,16z M90.1,41.9c-1.1,0.6-2.5,0.3-3.1-0.8
	s-0.3-2.5,0.8-3.1s2.5-0.3,3.1,0.8S91.2,41.3,90.1,41.9z"/>
<path fill="#015599" d="M65.4,75.2c0.7-0.3,1.4-0.6,2-1c0.5-0.3,0.9-0.6,1.4-0.9L63.9,65c-0.3-0.5-0.5-1-0.7-1.5
	c-0.4,0.4-0.9,0.8-1.4,1.1c-3.6,2.1-8.1,0.9-10.2-2.7c-2.1-3.6-0.9-8.1,2.7-10.2c3.6-2.1,8.1-0.9,10.2,2.7c0.3,0.6,0.6,1.2,0.8,1.8
	c0.4-0.3,0.8-0.6,1.2-0.9c1.5-0.9,3.1-1.1,4.7-0.9c0-0.1-0.1-0.2-0.1-0.3l4.1-3.3c-0.3-0.7-0.6-1.4-1-2c-0.6-1-1.2-1.9-1.9-2.7
	l-4.8,2.2c-0.9-0.9-1.9-1.6-3-2.2l0.5-5.2c-1.7-0.7-3.6-1.1-5.4-1.3l-1.8,5c-1.2,0-2.5,0.2-3.7,0.6l-3.3-4.1c-0.7,0.3-1.4,0.6-2,1
	c-1,0.6-1.9,1.2-2.7,1.9l2.2,4.8c-0.9,0.9-1.6,1.9-2.2,3l-5.2-0.5c-0.7,1.7-1.1,3.6-1.3,5.4l5,1.8c0,1.2,0.2,2.5,0.6,3.7l-4.1,3.3
	c0.3,0.7,0.6,1.4,1,2c0.6,1,1.2,1.9,1.9,2.7l4.8-2.2c0.9,0.9,1.9,1.6,3,2.2l-0.5,5.2c1.7,0.7,3.6,1.1,5.4,1.3l1.8-5
	c1.2,0,2.5-0.2,3.7-0.6L65.4,75.2z"/>
<path fill="#015599" d="M89.9,64c-1.2,0.7-1.7,2.3-0.9,3.6l-1.2-2c-0.8-1.3-2.5-1.7-3.8-1c-1.1,0.7-1.6,2-1.2,3.2
	c-0.9-0.9-2.3-1.1-3.4-0.5c-0.7,0.4-1.1,1.1-1.3,1.8l-5.4-9.2c-0.9-1.5-2.7-1.9-4.2-1.1c-1.5,0.9-1.9,2.7-1.1,4.2l11.2,19l-3.1-2
	c-1.4-0.9-3.3-0.5-4.2,0.9c-0.9,1.4-0.5,3.3,0.9,4.2l16.2,10.6c0.9,0.6,1.9,0.6,2.8,0.3c1.1,0,2.2-0.2,3.2-0.8l7.4-4.4
	c2.8-1.7,3.8-5.4,2.1-8.2l-0.1-0.2l-2.7-4.6L93.6,65C92.7,63.7,91.1,63.3,89.9,64z"/>
</svg>
