<?xml version="1.0" encoding="utf-8"?>
<!-- Generator: Adobe Illustrator 19.1.0, SVG Export Plug-In . SVG Version: 6.00 Build 0)  -->
<!DOCTYPE svg PUBLIC "-//W3C//DTD SVG 1.1//EN" "http://www.w3.org/Graphics/SVG/1.1/DTD/svg11.dtd">
<svg version="1.1" id="Layer_1" xmlns="http://www.w3.org/2000/svg" xmlns:xlink="http://www.w3.org/1999/xlink" x="0px" y="0px"
	 viewBox="0 0 120 120" enable-background="new 0 0 120 120" xml:space="preserve">
<g>
	<path fill="#015599" d="M27.6,85.9h12.8c1.1,0,2.1-0.9,2.1-2.1v-42c0-1.1-0.9-2.1-2.1-2.1H27.6c-1.1,0-2.1,0.9-2.1,2.1v42
		C25.5,85,26.4,85.9,27.6,85.9z"/>
	<path fill="#015599" d="M53.9,85.9h12.8c1.1,0,2.1-0.9,2.1-2.1V28.6c0-1.1-0.9-2.1-2.1-2.1H53.9c-1.1,0-2.1,0.9-2.1,2.1v55.3
		C51.8,85,52.7,85.9,53.9,85.9z"/>
	<path fill="#015599" d="M79.7,85.9h12.8c1.1,0,2.1-0.9,2.1-2.1V58.3c0-1.1-0.9-2.1-2.1-2.1H79.7c-1.1,0-2.1,0.9-2.1,2.1v25.6
		C77.7,85,78.6,85.9,79.7,85.9z"/>
	<rect x="16.7" y="90" fill="#015599" width="86.7" height="3.5"/>
</g>
</svg>
