<?xml version="1.0" encoding="utf-8"?>
<!-- Generator: Adobe Illustrator 19.1.1, SVG Export Plug-In . SVG Version: 6.00 Build 0)  -->
<!DOCTYPE svg PUBLIC "-//W3C//DTD SVG 1.1//EN" "http://www.w3.org/Graphics/SVG/1.1/DTD/svg11.dtd">
<svg version="1.1" id="Layer_2" xmlns="http://www.w3.org/2000/svg" xmlns:xlink="http://www.w3.org/1999/xlink" x="0px" y="0px"
	 viewBox="0 0 120 120" enable-background="new 0 0 120 120" xml:space="preserve">
<path fill="#015599" d="M88.4,94.5v-69c0-2.8-2.2-5-5-5h-46c-2.8,0-5,2.2-5,5v54.6v14.4c0,2.8,2.2,5,5,5h46
	C86.1,99.5,88.4,97.3,88.4,94.5z M37.4,90.5c-0.6,0-1-0.4-1-1v-9.4V29.5c0-0.6,0.4-1,1-1h46c0.6,0,1,0.4,1,1v60c0,0.6-0.4,1-1,1
	H37.4z M58.1,94.9c0-1.2,1-2.3,2.3-2.3c1.2,0,2.3,1,2.3,2.3s-1,2.3-2.3,2.3C59.1,97.1,58.1,96.1,58.1,94.9z"/>
<path fill="#015599" d="M67.3,32.8H40.7c-0.5,0-0.8,0.4-0.8,0.8v8c0,0.5,0.4,0.8,0.8,0.8h2.2v4.1l4-4.1h20.4c0.5,0,0.8-0.4,0.8-0.8
	v-8C68.1,33.1,67.7,32.8,67.3,32.8z M65.8,39.9H42.1v-1.5h23.7V39.9z M65.8,36.6H42.1v-1.5h23.7V36.6z"/>
<path fill="#015599" d="M67.3,59.5H40.7c-0.5,0-0.8,0.4-0.8,0.8v8c0,0.5,0.4,0.8,0.8,0.8h2.2v4.1l4-4.1h20.4c0.5,0,0.8-0.4,0.8-0.8
	v-8C68.1,59.9,67.7,59.5,67.3,59.5z M65.8,66.6H42.1v-1.5h23.7V66.6z M65.8,63.3H42.1v-1.5h23.7V63.3z"/>
<path fill="#015599" d="M52.6,46.8v8c0,0.5,0.4,0.8,0.8,0.8h20.4l4,4.1v-4.1H80c0.5,0,0.8-0.4,0.8-0.8v-8c0-0.5-0.4-0.8-0.8-0.8
	H53.4C52.9,46,52.6,46.4,52.6,46.8z M54.9,51.6h23.7v1.5H54.9V51.6z M54.9,48.3h23.7v1.5H54.9V48.3z"/>
<path fill="#015599" d="M52.6,73.8v8c0,0.5,0.4,0.8,0.8,0.8h20.4l4,4.1v-4.1H80c0.5,0,0.8-0.4,0.8-0.8v-8c0-0.5-0.4-0.8-0.8-0.8
	H53.4C52.9,72.9,52.6,73.3,52.6,73.8z M54.9,78.5h23.7V80H54.9V78.5z M54.9,75.2h23.7v1.5H54.9V75.2z"/>
</svg>
