<?xml version="1.0" encoding="utf-8"?>
<!-- Generator: Adobe Illustrator 19.1.0, SVG Export Plug-In . SVG Version: 6.00 Build 0)  -->
<!DOCTYPE svg PUBLIC "-//W3C//DTD SVG 1.1//EN" "http://www.w3.org/Graphics/SVG/1.1/DTD/svg11.dtd">
<svg version="1.1" id="Layer_2" xmlns="http://www.w3.org/2000/svg" xmlns:xlink="http://www.w3.org/1999/xlink" x="0px" y="0px"
	 viewBox="0 0 1200 126" enable-background="new 0 0 1200 126" xml:space="preserve">
<path fill="#FFFFFF" d="M242.9,106.2l-7-7.7c1.6-0.1,3-1.1,3.4-2.8h-1.6c-0.4,0.8-1.2,1.5-2.2,1.5c-1.3,0-2.4-1.1-2.4-2.4
	c0-1.3,0.9-2.4,2.1-2.4h0.3c0.1,0,0.1,0.2,0.1,0.2v-0.2h0.4v-4.6h-0.4V72.1h3.7l-3.6-3.4h-9.3l-29.9-12.1l-0.1-0.5h-1.8l-0.2,0.8
	l-14.7,11.8h-2.9l-3,3.4h16.4v4.2h2.1v45.5h-4.2v4.2h14.7v-4.2h-4.2V76.3h2.1v-4.2h34.1v15.6h-0.4v3.5c-1.7,0.5-2.8,2-2.8,3.7
	c0,1.7,1.1,2.9,2.6,3.4l-7.1,7.8H226v4.2h18.1v-4.2H242.9z M180.9,68.8l13.3-10.7l-1.6,6.5h-2.4v4.2H180.9z M199.1,70.9h-3.8v-4.6
	h3.8V70.9z M198.6,64.6l-1.7-7.1l27.8,11.3h-23.9v-4.2H198.6z M235,98.5C235,98.5,235,98.5,235,98.5l7.1,7.7h-14L235,98.5z"/>
<path fill="#FFFFFF" d="M512,126v-1v-1.6V122h-3v-5.1v0.1h-1.5H501V94h-3v3h-6v-2.5V92h-3v-9h-1v-1h2v-2h-7v2h2v1h-1v12h-3v16h-2.5
	c-3.2,0-5.5,1.4-5.5,4.6v2.4h-2.4c-0.8-8-5.1-12.8-10.2-12.8c-5.2,0-9.5,4.8-10.2,12.8H447v-2h0.2l-0.9-84h-5.6l-1.1,79.6L426,97.5
	v14.9l-15-14.9v14.7l-4-3.9V79h2v-1h-2v-2h2v-4h-2v-5h-6v5h-2v4h2v2h-2v1h2v22.9l-5-4.4v14.3l-8-8.2V95h-4v-5h-3V69h3v-2h-3v-3h-4v3
	h-3v2h3v21h-3v5h-6.6c-0.2-3-3-6-6.7-6h-3.4c-3.8,0-7.2,2.1-7.2,5.9v4.8c0,0.1,0.3,0.1,0.3,0.2c-3.6,0.2-6.3,3.2-6.3,6.9v1.3
	c0,0-0.4,0.9-0.4,0.9h-7.3l-1.1-60h-4.4l-0.9,60H321v4h-3V70.7c1-0.2,4-1.2,4-2.5v-2.4c0-1.1-3-2.1-4-2.4V60h-8v3.5
	c-1,0.3-4,1.3-4,2.4v2.4c0,0.6,1,1.1,2,1.6V113h-4v-13h-5v13h-2v-8h-3v8h-3v3h-6v4h-3v6H512z M501,118h7v4h-7V118z M498,97v4.4
	l-4.7-4.4H498z M492,97.7l6,6.3h-5.3l-0.7-1V97.7z M498,105v3.7l-4.3-3.7H498z M492,105l6.1,7H492V105z M498,113v3.3l-4.4-3.3H498z
	 M492,112.6l6,6.4h-6V112.6z M492,121.3V120h6v5h-6V121.3z M485.6,80.8h1.1v1.1h-1.1V80.8z M475,115.2c0-2.1,1.4-3.2,3.5-3.2h2.5v10
	h-4v-4h-2V115.2z M353,95.1c0-2.7,1.6-4.1,4.3-4.1h3.2c2.5,0,4.7,2,4.9,4H361v27h-1v-3v-2.3v-4.2V109h-0.7c0,0,0.7-0.9,0.7-0.9v-1.3
	c0-3.8-4-6.9-7-6.9V95.1z M309,70.2c0,0.1,1,0.2,1,0.3V79h-1V70.2z M309,80h1v12h-1V80z M309,93h1v12h-1V93z M309,105h1v8h-1V105z"
	/>
<g>
	<path fill="#FFFFFF" d="M721.9,119.9c0,3.4,2.7,6.1,6.1,6.1s6.1-2.7,6.1-6.1c0-3.4-2.7-6.1-6.1-6.1S721.9,116.5,721.9,119.9z
		 M724.9,119.9c0-1.7,1.4-3.2,3.2-3.2c1.7,0,3.2,1.4,3.2,3.2c0,1.7-1.4,3.2-3.2,3.2C726.3,123,724.9,121.6,724.9,119.9z"/>
	<path fill="#FFFFFF" d="M706.5,122.2c0,2.1,1.7,3.8,3.8,3.8c2.1,0,3.8-1.7,3.8-3.8c0-2.1-1.7-3.8-3.8-3.8
		C708.1,118.5,706.5,120.2,706.5,122.2z M708.3,122.2c0-1.1,0.9-1.9,1.9-1.9c1.1,0,1.9,0.9,1.9,1.9c0,1.1-0.9,1.9-1.9,1.9
		C709.1,124.2,708.3,123.3,708.3,122.2z"/>
	<path fill="#FFFFFF" d="M722.1,109.5c0.1-0.3,0.5-0.4,0.5-0.4h2.1l0.1-1.9c0,0-0.1-0.5,0.2-0.7c0.2-0.2,0.5-0.4,0.5-0.4h1v4.1
		l-4.3,0.4C722.2,110.6,722,109.8,722.1,109.5z"/>
	<path fill="#FFFFFF" d="M692.6,124.7c0.1,0.2,0.1,0.4,0.2,0.5h9.7c0.3-0.7,0.5-1.5,0.5-2.3c0-0.4,0-0.7-0.1-1l1.8-1
		c0.1,0.1,0.2,0.2,0.2,0.3l0.3,0.3l0.1,0.1l0.4-1.9c0.8-1.4,2.4-2.3,4.2-2.3c2,0,3.7,1.2,4.4,2.9l0.3,1.5h0.1c0,0,0,0,0,0h3.5
		c0,0,0,0,0,0c0,0,0-0.1,0-0.1l1.8,0l0.4,0l0,0c-0.1-0.6-0.2-1.2-0.2-1.9c0-4.3,3.5-7.8,7.8-7.8c1.7,0,3.2,0.5,4.5,1.4l2.4,2.8
		l0-0.1c0.1,0.2,0.3,0.5,0.4,0.7v-2.9c-0.1-0.1-0.2-0.2-0.2-0.3l0.5-8.7l6.9-6.6l1.5,6.6l0.1,0.1c-1.1,0.3-2,1.3-2,2.5c0,0,0,0,0,0
		l-2.9-1.7l-0.4-2.1h-0.4c0,0-1.7,4.9-1.6,5.4c0.1,0.4,0.4,0.8,1.1,1.4c0.7,0.6,3.2,1.4,3.2,1.4l4.6-2l0,0c0.9-0.4,1.6-1.3,1.6-2.4
		c0-0.1,0-0.3,0-0.4l0,0l-1.1-12.4l0,0c-0.2-1.4-1.4-2.5-2.8-2.5c-1.1,0-2,0.6-2.5,1.5l-9.3,7.4v9.9c-0.2-0.1-0.4-0.1-0.6-0.1h0h0
		c-0.1,0-0.2-0.1-0.2-0.1l-1.8-10.2h-6.6v-0.7c0-0.5-0.3-0.8-0.9-0.8h-0.7c-0.5,0-0.9,0.3-0.9,0.8v0.7h-1c0,0-1.7,0.4-2.3,1.4
		c-0.6,1-0.6,1.8-0.6,1.8v4.1l-2,0.6v-3.8c0-1.1-0.7-2.2-1.8-2.2h-0.2v2c0,0.1,0.5,0.2,0.5,0.5v4l-6.7,2.2c0,0-0.4,0-0.9,0.5
		c-0.5,0.5-0.6,2-0.6,2h0.9l0.1,2.7l-1,0.3l-0.4,1.5l-1.6,1.7c-0.8-1.3-2.1-2.2-3.7-2.4l-0.8,1.1l-0.2-1l0.3-0.5l-2.7-0.7v0.7l1,0.6
		l0.1,2.9l-2.4,3.5L692.6,124.7z M744.7,106.5c0.6,0,1,0.5,1,1c0,0.6-0.5,1-1,1c-0.6,0-1-0.5-1-1
		C743.7,106.9,744.2,106.5,744.7,106.5z M744.4,95.1c0,0.6-0.5,1.1-1.1,1.1c-0.6,0-1.1-0.5-1.1-1.1c0-0.6,0.5-1.1,1.1-1.1
		C743.9,94,744.4,94.5,744.4,95.1z M728.1,110.5c-0.6,0-1.3,0.1-1.9,0.2l-3.5,0.4l-2.1,2.9h-3.3l0.7-9.3c0,0-0.1-0.5,0.3-1
		c0.5-0.6,1.3-0.5,1.3-0.5h7.4L728.1,110.5z M719.6,116.1L719.6,116.1C719.6,116.1,719.6,116.1,719.6,116.1L719.6,116.1z"/>
</g>
<path fill="#FFFFFF" d="M1013.5,122c0,0-3.5-6.8-4.5-9.4s-2.5-9.5-3-12c-0.5-2.5,0.7-9.7,0.7-9.7h-16c0,0,0.4,6.4-0.1,9.7
	c-0.2,1.6-1.4,8.4-2.4,11.8c-0.6,1.9-4.6,9.6-4.6,9.6h-3.3c0,0-3.5-6.8-4.5-9.4s-2.5-9.5-3-12c-0.5-2.5,0.7-9.7,0.7-9.7h-16
	c0,0,0.4,6.4-0.1,9.7c-0.2,1.6-1.4,8.4-2.4,11.8c-0.6,1.9-4.6,9.6-4.6,9.6h-2.3c0,0-3.5-6.8-4.5-9.4s-2.5-9.5-3-12
	c-0.5-2.5,0.7-9.7,0.7-9.7h-16c0,0,0.4,6.4-0.1,9.7c-0.2,1.6-1.4,8.4-2.4,11.8c-0.6,1.9-4.6,9.6-4.6,9.6h-2v-4h-2v-6h-2l-1-65h-3.3
	l-1.1,65h-2.6v-2h-1.6l-1-63H899l-1.1,63h-3.6l-1-63H890l-1.1,63h-2.1v2h-4v6h-12v-0.3v-4.1V105h-8v-6h-20v6h-11v-3h-3v3h-3v9h-5v3
	h-10v-1h-1.2l-0.8-57h-2.6l-0.7,57h-3.7v2h-5v4h-7v2h-2v-10h-6v8h-3v2h-6v2h5.7h3h3.3h3.3h2.3h2.1h4.4h3h9.8h2.5h8.7h10.8H870h1
	h42.8h3h103.1v-4H1013.5z M820.9,119h-9v-1h9V119z M811.9,124v-2h9v2H811.9z"/>
<polygon fill="#FFFFFF" points="1152.6,62.2 1135.5,40.4 1134.1,39.1 1138.8,31.6 1147.3,3.8 1146.4,2.9 1138,21.1 1130.3,39.6 
	1120.6,39.7 1092.1,47.2 1092.1,47.9 1093,47.9 1103.6,47.3 1130.3,42.7 1128.9,126 1136.3,126 1134.6,45.3 1137.7,50.6 
	1156.9,71.9 1158.3,71 "/>
<path fill="#FFFFFF" d="M1095.9,63.4l-16.2,3.2l-3.7-4.8l-12.8-10.8h-0.9l16,17.7h0.2l0,0.6l-2.5,5.4c0,0-3.5,16.5-3.5,16.9h0.6
	l5-13.2l0.2-0.6l-0.9,48.3h4.6l-1-57.4h5.1l16.5-5.6v-0.7L1095.9,63.4z"/>
<path fill="#FFFFFF" d="M85.6,49.3L68.5,41v-7.5h14.2v3.6h2.4v-3.6h0.4v-0.4l0.2-0.4l-16.5-8.1L69.1,25l-5.1-6l-4.5,5.2h-1v0.9
	l-16.8,7.6l0.2,0.4v0.4v3.6h2.4v-3.6h14.2v7.9l-16.8,7.9l0.2,0.4v0.2v0.3v3.6h2.4v-3.6h14.2v10.3l0.1,0l-10.1,65.3l2,0.3l1.4-9.1
	l12.1-4.3l11.3,4l1.4,9.4l2-0.3l-9.9-67.5h-0.3v-8.1h14.2v3.6h2.4v-3.6h0.4h0.4v-0.8H85.6z M68.5,26.2h1.6l-0.3-0.4l14,6.9H68.5
	V26.2z M58.4,49.3H43.6l14.8-7V49.3z M58.4,32.7H43.7L58.4,26V32.7z M67.7,64.2l-2.8-2.1l2.2-1.8L67.7,64.2z M66.5,29v0.3l-2.7,1.3
	l-3.2-1.4l3.2-1.6L66.5,29z M64.6,27.1l1.9-0.9v1.9L64.6,27.1z M66.5,30.2v1.6L64.8,31L66.5,30.2z M63.8,31.5l2.7,1.2h-5.2
	L63.8,31.5z M66.5,34v1.9l-1.8-1L66.5,34z M65.8,33.5l-2,1l-1.9-1H65.8z M66.5,36.8v0.4l-2.7,1.4L60.5,37l3.3-1.6L66.5,36.8z
	 M66.5,38.1V40l-1.8-0.9L66.5,38.1z M63.8,39.6l2.7,1.4v1.2l-2.2,1l-3.5-1.9L63.8,39.6z M66.5,43v1.3l-1.3-0.7L66.5,43z M66.5,45.2
	v0.6l-2.6,1.4l-3.1-1.6l3.4-1.5L66.5,45.2z M66.5,46.7v1.9l-1.7-0.9L66.5,46.7z M66.2,49.3h-4.5l2.3-1.2L66.2,49.3z M66.4,50.1
	l-2.5,1.2l-2.4-1.2H66.4z M66.5,50.9v1.8l-1.8-0.9L66.5,50.9z M66.5,53.6v0.7L63.8,56l-3.3-2l3.4-1.7L66.5,53.6z M66.5,55.2v2.4
	l-1.9-1.2L66.5,55.2z M63.8,56.9l2.7,1.6l-5.2-0.1L63.8,56.9z M66.5,59.4v0.3l-2.4,1.9l-3-2.3L66.5,59.4z M63.9,22.1l2.6,3v0.1
	l-2.8,1.4l-2.6-1.4L63.9,22.1z M60.4,26l0.1-0.1l2.3,1.2l-2.4,1.2V26z M60.4,30l2.4,1.1l-2.4,1.1V30z M60.4,33.6l2.5,1.3l-2.5,1.2
	V33.6z M60.4,37.9l2.5,1.2l-2.5,1.3V37.9z M60.4,41.9l2.9,1.6l-2.9,1.3V41.9z M60.4,46.2l2.6,1.4L60.4,49V46.2z M60.4,50.5l2.5,1.3
	L60.4,53V50.5z M60.4,54.9l2.6,1.6l-2,1.3l0-0.3l-0.6,0.2V54.9z M60.7,59.9l2.8,2.2l-3.6,3L60.7,59.9z M59.7,66.3l4.5-3.7l3.6,2.8
	l0.2,1.4l-4.2,3l-4.2-3.1L59.7,66.3z M59.5,67.6l3.7,2.7l-4.6,3.3L59.5,67.6z M58.2,75.8l4.8,2.8l-5.8,3.4L58.2,75.8z M57,84.1
	l6.3,3.1l-7.3,3.9L57,84.1z M55.7,92.3l7.1,3.1l-8.1,3.5L55.7,92.3z M54.4,100.6l8.1,3.4l-9.2,3.7L54.4,100.6z M52,116l1.1-7.2
	l9.7,3.4L52,116z M64,111.7l-10-3.5l9.6-3.8l9.8,4.1L64,111.7z M75.2,115.7l-10-3.5l9-3.2L75.2,115.7z M74.1,107.9l-9.4-3.9l8.4-3.3
	L74.1,107.9z M63.6,103.5l-9-3.7l9.2-4l9.1,4L63.6,103.5z M72.7,98.9l-8-3.5l7-3.1L72.7,98.9z M71.7,91.5l-7.9,3.4l-7.3-3.2l7.7-4.1
	L71.7,91.5L71.7,91.5z M71.5,90.4L65,87.2l5.6-3L71.5,90.4z M70.5,83.3l-6.4,3.4l-7-3.5l0-0.1l6.7-4l6.6,3.9L70.5,83.3z M70.3,82
	l-5.6-3.3l4.7-2.8L70.3,82z M69.2,75l-5.4,3.2L58.3,75l0-0.3l5.5-3.9l5.3,3.8L69.2,75z M69,73.5l-4.5-3.2l3.6-2.6L69,73.5z
	 M68.5,41.9l15.2,7.4H68.5V41.9z"/>
<path fill="#FFFFFF" d="M127.6,67.9l-13-6.3v-5.7h10.7v2.8h1.8v-2.8h0.3v-0.3l0.1-0.3l-12.5-6.1l-0.1,0.3l-3.9-4.5l-3.4,4H107v0.7
	l-12.7,5.8l0.1,0.3v0.3v2.8h1.8v-2.8H107v6l-12.7,6l0.1,0.3v0.1v0.2v2.8h1.8v-2.8H107v7.8l0.1,0l-7.6,49.5l1.5,0.2l1.1-6.9l9.2-3.2
	l8.6,3l1.1,7.1l1.5-0.2l-7.5-51.2h-0.2v-6.1h10.7v2.8h1.8v-2.8h0.3h0.3v-0.6H127.6z M114.7,50.4h1.2l-0.3-0.3l10.6,5.2h-11.6V50.4z
	 M107,67.9H95.8l11.2-5.3V67.9z M107,55.3H95.9l11.2-5.1V55.3z M114,79.2l-2.1-1.6l1.7-1.4L114,79.2z M113.2,52.5v0.2l-2.1,1
	l-2.4-1.1l2.4-1.2L113.2,52.5z M111.7,51l1.4-0.7v1.5L111.7,51z M113.2,53.4v1.2l-1.3-0.6L113.2,53.4z M111.1,54.4l2,0.9h-4
	L111.1,54.4z M113.2,56.3v1.4l-1.4-0.7L113.2,56.3z M112.6,55.9l-1.5,0.8l-1.4-0.8H112.6z M113.2,58.4v0.3l-2.1,1.1l-2.5-1.2
	l2.5-1.2L113.2,58.4z M113.2,59.4v1.4l-1.4-0.7L113.2,59.4z M111.1,60.5l2.1,1v0.9l-1.7,0.7l-2.7-1.4L111.1,60.5z M113.2,63.1v1
	l-1-0.5L113.2,63.1z M113.2,64.7v0.4l-2,1.1l-2.3-1.2l2.6-1.2L113.2,64.7z M113.2,65.9v1.4l-1.3-0.7L113.2,65.9z M112.9,67.9h-3.4
	l1.7-0.9L112.9,67.9z M113,68.5l-1.9,0.9l-1.8-0.9H113z M113.2,69.1v1.4l-1.3-0.7L113.2,69.1z M113.2,71.1v0.5l-2.1,1.3l-2.5-1.6
	l2.6-1.3L113.2,71.1z M113.2,72.4v1.8l-1.5-0.9L113.2,72.4z M111.1,73.7l2,1.2l-3.9-0.1L111.1,73.7z M113.2,75.5v0.2l-1.8,1.5
	l-2.3-1.7L113.2,75.5z M111.2,47.2l2,2.3v0.1l-2.1,1.1l-2-1L111.2,47.2z M108.6,50.2L108.6,50.2l1.8,0.8l-1.8,0.9V50.2z M108.6,53.2
	l1.8,0.8l-1.8,0.9V53.2z M108.6,56l1.9,1l-1.9,0.9V56z M108.6,59.2l1.9,0.9l-1.9,1V59.2z M108.6,62.3l2.2,1.2l-2.2,1V62.3z
	 M108.6,65.5l2,1.1l-2,1.1V65.5z M108.6,68.8l1.9,1l-1.9,1V68.8z M108.6,72.1l2,1.2l-1.5,1l0-0.2l-0.5,0.1V72.1z M108.7,75.9
	l2.2,1.6l-2.8,2.3L108.7,75.9z M108,80.7l3.4-2.8l2.8,2.1l0.2,1.1l-3.2,2.3l-3.2-2.3L108,80.7z M107.8,81.8l2.8,2l-3.5,2.5
	L107.8,81.8z M106.9,88l3.7,2.2l-4.4,2.6L106.9,88z M105.9,94.2l4.7,2.4l-5.6,3L105.9,94.2z M104.9,100.4l5.4,2.3l-6.1,2.7
	L104.9,100.4z M104,106.8l6.1,2.5l-7,2.8L104,106.8z M102.2,118.4l0.8-5.4l7.3,2.6L102.2,118.4z M111.3,115.2l-7.6-2.7l7.2-2.9
	l7.4,3.1L111.3,115.2z M119.7,118.2l-7.5-2.6l6.8-2.4L119.7,118.2z M118.9,112.3l-7.1-3l6.3-2.5L118.9,112.3z M110.9,109l-6.8-2.8
	l6.9-3l6.9,3L110.9,109z M117.9,105.4l-6-2.6l5.3-2.3L117.9,105.4z M117.1,99.8l-6,2.6l-5.6-2.4l5.8-3.1L117.1,99.8L117.1,99.8z
	 M116.9,99l-5-2.5l4.3-2.3L116.9,99z M116.1,93.6l-4.8,2.6l-5.3-2.6l0-0.1l5.1-3l5,2.9L116.1,93.6z M116,92.7l-4.3-2.5l3.6-2.1
	L116,92.7z M115.2,87.4l-4.1,2.4l-4.2-2.5l0-0.2l4.2-3l4,2.9L115.2,87.4z M115.1,86.2l-3.4-2.4l2.7-2L115.1,86.2z M114.7,62.3
	l11.5,5.6h-11.5V62.3z"/>
</svg>
