<?xml version="1.0" encoding="utf-8"?>
<!-- Generator: Adobe Illustrator 19.1.0, SVG Export Plug-In . SVG Version: 6.00 Build 0)  -->
<!DOCTYPE svg PUBLIC "-//W3C//DTD SVG 1.1//EN" "http://www.w3.org/Graphics/SVG/1.1/DTD/svg11.dtd">
<svg version="1.1" id="Layer_2" xmlns="http://www.w3.org/2000/svg" xmlns:xlink="http://www.w3.org/1999/xlink" x="0px" y="0px"
	 viewBox="0 0 1200 126" enable-background="new 0 0 1200 126" xml:space="preserve">
<path fill="#FFFFFF" d="M258.6,106.2l-7-7.7c1.6-0.1,3-1.1,3.4-2.8h-1.6c-0.4,0.8-1.2,1.5-2.2,1.5c-1.3,0-2.4-1.1-2.4-2.4
	c0-1.3,0.9-2.4,2.1-2.4h0.3c0.1,0,0.1,0.2,0.1,0.2v-0.2h0.4v-4.6h-0.4V72.1h3.7l-3.6-3.4h-9.3l-29.9-12.1l-0.1-0.5h-1.8l-0.2,0.8
	l-14.7,11.8h-2.9l-3,3.4H206v4.2h2.1v45.5h-4.2v4.2h14.7v-4.2h-4.2V76.3h2.1v-4.2h34.1v15.6h-0.4v3.5c-1.7,0.5-2.8,2-2.8,3.7
	c0,1.7,1.1,2.9,2.6,3.4l-7.1,7.8h-1.2v4.2h18.1v-4.2H258.6z M196.7,68.8L210,58.1l-1.6,6.5H206v4.2H196.7z M214.8,70.9H211v-4.6h3.8
	V70.9z M214.4,64.6l-1.7-7.1l27.8,11.3h-23.9v-4.2H214.4z M250.7,98.5C250.7,98.5,250.7,98.5,250.7,98.5l7.1,7.7h-14L250.7,98.5z"/>
<path fill="#FFFFFF" d="M566.5,126v-1v-1.6V122h-3v-5.1v0.1H562h-6.5V94h-3v3h-6v-2.5V92h-3v-9h-1v-1h2v-2h-7v2h2v1h-1v12h-3v16H533
	c-3.2,0-5.5,1.4-5.5,4.6v2.4h-2.4c-0.8-8-5.1-12.8-10.2-12.8c-5.2,0-9.5,4.8-10.2,12.8h-3.1v-2h0.2l-0.9-84h-5.6l-1.1,79.6
	l-13.6-14.1v14.9l-15-14.9v14.7l-4-3.9V79h2v-1h-2v-2h2v-4h-2v-5h-6v5h-2v4h2v2h-2v1h2v22.9l-5-4.4v14.3l-8-8.2V95h-4v-5h-3V69h3v-2
	h-3v-3h-4v3h-3v2h3v21h-3v5h-6.6c-0.2-3-3-6-6.7-6h-3.4c-3.8,0-7.2,2.1-7.2,5.9v4.8c0,0.1,0.3,0.1,0.3,0.2c-3.6,0.2-6.3,3.2-6.3,6.9
	v1.3c0,0-0.4,0.9-0.4,0.9h-7.3l-1.1-60h-4.4l-0.9,60h-8.8v4h-3V70.7c1-0.2,4-1.2,4-2.5v-2.4c0-1.1-3-2.1-4-2.4V60h-8v3.5
	c-1,0.3-4,1.3-4,2.4v2.4c0,0.6,1,1.1,2,1.6V113h-4v-13h-5v13h-2v-8h-3v8h-3v3h-6v4h-3v6H566.5z M555.5,118h7v4h-7V118z M552.5,97
	v4.4l-4.7-4.4H552.5z M546.5,97.7l6,6.3h-5.3l-0.7-1V97.7z M552.5,105v3.7l-4.3-3.7H552.5z M546.5,105l6.1,7h-6.1V105z M552.5,113
	v3.3l-4.4-3.3H552.5z M546.5,112.6l6,6.4h-6V112.6z M546.5,121.3V120h6v5h-6V121.3z M540.1,80.8h1.1v1.1h-1.1V80.8z M529.5,115.2
	c0-2.1,1.4-3.2,3.5-3.2h2.5v10h-4v-4h-2V115.2z M407.5,95.1c0-2.7,1.6-4.1,4.3-4.1h3.2c2.5,0,4.7,2,4.9,4h-4.4v27h-1v-3v-2.3v-4.2
	V109h-0.7c0,0,0.7-0.9,0.7-0.9v-1.3c0-3.8-4-6.9-7-6.9V95.1z M363.5,70.2c0,0.1,1,0.2,1,0.3V79h-1V70.2z M363.5,80h1v12h-1V80z
	 M363.5,93h1v12h-1V93z M363.5,105h1v8h-1V105z"/>
<g>
	<path fill="#FFFFFF" d="M885.5,116.5c-2.6,0-4.8,2.1-4.8,4.8c0,2.6,2.1,4.8,4.8,4.8c2.6,0,4.8-2.1,4.8-4.8
		C890.3,118.6,888.1,116.5,885.5,116.5z M885.5,123.7c-1.4,0-2.5-1.1-2.5-2.5c0-1.4,1.1-2.5,2.5-2.5s2.5,1.1,2.5,2.5
		C888,122.6,886.9,123.7,885.5,123.7z"/>
	<path fill="#FFFFFF" d="M899.4,120.1c-1.6,0-2.9,1.3-2.9,2.9s1.3,2.9,2.9,2.9c1.6,0,2.9-1.3,2.9-2.9S901,120.1,899.4,120.1z
		 M899.4,124.6c-0.8,0-1.5-0.7-1.5-1.5s0.7-1.5,1.5-1.5c0.8,0,1.5,0.7,1.5,1.5S900.2,124.6,899.4,124.6z"/>
	<path fill="#FFFFFF" d="M890.1,113.1c-0.1-0.2-0.4-0.3-0.4-0.3H888l-0.1-1.5c0,0,0.1-0.4-0.1-0.6c-0.2-0.2-0.4-0.3-0.4-0.3h-0.8
		v3.2l3.4,0.3C890,114,890.2,113.3,890.1,113.1z"/>
	<path fill="#FFFFFF" d="M912.2,124.8l-1.9-2.7l0.1-2.2l0.8-0.5v-0.5l-2.1,0.5l0.3,0.4l-0.2,0.7l-0.6-0.9c-1.2,0.2-2.3,0.9-2.9,1.9
		l-1.2-1.3l-0.3-1.2l-0.8-0.2l0.1-2.1h0.7c0,0-0.1-1.2-0.5-1.6c-0.4-0.4-0.7-0.4-0.7-0.4l-5.3-1.7v-3.1c0-0.2,0.4-0.3,0.4-0.4v-1.6
		H898c-0.8,0-1.4,0.9-1.4,1.7v3l-1.5-0.5v-3.2c0,0,0-0.7-0.5-1.4s-1.8-1.1-1.8-1.1H892v-0.5c0-0.4-0.2-0.6-0.7-0.6h-0.6
		c-0.4,0-0.7,0.2-0.7,0.6v0.5h-5.2l-1.4,7.9c-0.1,0-0.1,0.1-0.2,0.1h0h0c-0.2,0-0.3,0-0.5,0v-7.7l-7.2-5.7c-0.4-0.7-1.1-1.2-2-1.2
		c-1.1,0-2.1,0.8-2.2,1.9l0,0l-0.9,9.6l0,0c0,0.1,0,0.2,0,0.3c0,0.8,0.5,1.6,1.3,1.8l0,0l3.6,1.5c0,0,2-0.7,2.5-1.1
		c0.5-0.4,0.8-0.7,0.9-1.1c0-0.3-1.2-4.2-1.2-4.2h-0.3l-0.3,1.7l-2.3,1.3c0,0,0,0,0,0c0-0.9-0.7-1.7-1.5-1.9l0.1-0.1l1.2-5.2
		l5.4,5.2l0.4,6.8c-0.1,0.1-0.1,0.1-0.2,0.2v2.3c0.1-0.2,0.2-0.4,0.3-0.6l0,0.1l1.8-2.2c1-0.7,2.2-1.1,3.5-1.1
		c3.4,0,6.1,2.7,6.1,6.1c0,0.5-0.1,1-0.2,1.5l0,0l0.3,0l1.4,0c0,0,0,0.1,0,0.1c0,0,0,0,0,0h2.7c0,0,0,0,0,0h0.1l0.2-1.1
		c0.6-1.3,1.9-2.3,3.4-2.3c1.4,0,2.7,0.7,3.3,1.8l0.3,1.5l0.1-0.1l0.3-0.3c0.1-0.1,0.1-0.1,0.2-0.2l1.4,0.8
		c-0.1,0.3-0.1,0.5-0.1,0.8c0,0.6,0.1,1.2,0.4,1.8h7.6c0.1-0.1,0.1-0.3,0.2-0.4L912.2,124.8z M873.3,111.6c0,0.4-0.4,0.8-0.8,0.8
		c-0.4,0-0.8-0.4-0.8-0.8c0-0.4,0.4-0.8,0.8-0.8C872.9,110.8,873.3,111.1,873.3,111.6z M873.6,101c0.5,0,0.9,0.4,0.9,0.9
		c0,0.5-0.4,0.9-0.9,0.9c-0.5,0-0.9-0.4-0.9-0.9C872.7,101.4,873.1,101,873.6,101z M886.3,108.2h5.7c0,0,0.7,0,1,0.4
		c0.3,0.4,0.2,0.8,0.2,0.8l0.6,7.2h-2.6l-1.7-2.3l-2.7-0.3c-0.5-0.1-1-0.2-1.5-0.2L886.3,108.2z M892,118.3
		C892,118.3,892,118.3,892,118.3L892,118.3L892,118.3z"/>
</g>
<path fill="#FFFFFF" d="M822.4,122c0,0-3.5-6.8-4.5-9.4s-2.5-9.5-3-12c-0.5-2.5,0.7-9.7,0.7-9.7h-16c0,0,0.4,6.4-0.1,9.7
	c-0.2,1.6-1.4,8.4-2.4,11.8c-0.6,1.9-4.6,9.6-4.6,9.6h-3.3c0,0-3.5-6.8-4.5-9.4s-2.5-9.5-3-12c-0.5-2.5,0.7-9.7,0.7-9.7h-16
	c0,0,0.4,6.4-0.1,9.7c-0.2,1.6-1.4,8.4-2.4,11.8c-0.6,1.9-4.6,9.6-4.6,9.6h-2.3c0,0-3.5-6.8-4.5-9.4s-2.5-9.5-3-12
	c-0.5-2.5,0.7-9.7,0.7-9.7h-16c0,0,0.4,6.4-0.1,9.7c-0.2,1.6-1.4,8.4-2.4,11.8c-0.6,1.9-4.6,9.6-4.6,9.6h-2v-4h-2v-6h-2l-1-65h-3.3
	l-1.1,65h-2.6v-2h-1.6l-1-63h-3.3l-1.1,63h-3.6l-1-63h-3.3l-1.1,63h-2.1v2h-4v6h-12v-0.3v-4.1V105h-8v-6h-20v6h-11v-3h-3v3h-3v9h-5
	v3h-10v-1h-1.2l-0.8-57h-2.6l-0.7,57h-3.7v2h-5v4h-7v2h-2v-10h-6v8h-3v2h-6v2h5.7h3h3.3h3.3h2.3h2.1h4.4h3h9.8h2.5h8.7h10.8h38.4h1
	h42.8h3h103.1v-4H822.4z M629.7,119h-9v-1h9V119z M620.7,124v-2h9v2H620.7z"/>
<polygon fill="#FFFFFF" points="1152.6,62.2 1135.5,40.4 1134.1,39.1 1138.8,31.6 1147.3,3.8 1146.4,2.9 1138,21.1 1130.3,39.6 
	1120.6,39.7 1092.1,47.2 1092.1,47.9 1093,47.9 1103.6,47.3 1130.3,42.7 1128.9,126 1136.3,126 1134.6,45.3 1137.7,50.6 
	1156.9,71.9 1158.3,71 "/>
<path fill="#FFFFFF" d="M1095.9,63.4l-16.2,3.2l-3.7-4.8l-12.8-10.8h-0.9l16,17.7h0.2l0,0.6l-2.5,5.4c0,0-3.5,16.5-3.5,16.9h0.6
	l5-13.2l0.2-0.6l-0.9,48.3h4.6l-1-57.4h5.1l16.5-5.6v-0.7L1095.9,63.4z"/>
<path fill="#FFFFFF" d="M85.6,37.7l-19.7-9.5v-8.7h16.3v4.2H85v-4.2h0.5v-0.5l0.2-0.4l-19-9.3l-0.2,0.4l-5.9-6.9l-5.2,6h-1.1v1.1
	L35,18.7l0.2,0.4v0.5v4.2H38v-4.2h16.3v9.1L35,37.8l0.2,0.4v0.2v0.3v4.2H38v-4.2h16.3v11.8l0.2-0.1l-11.6,75.1l2.3,0.4l1.6-10.4
	l14-4.9l13,4.6l1.6,10.9l2.3-0.3L66.2,48h-0.3v-9.3h16.3v4.2H85v-4.2h0.5h0.5v-0.9H85.6z M65.9,11.2h1.8l-0.4-0.5l16.1,7.9H65.9
	V11.2z M54.3,37.7h-17l17-8V37.7z M54.3,18.6H37.4l16.9-7.7V18.6z M64.9,54.9l-3.3-2.5l2.6-2.1L64.9,54.9z M63.6,14.4v0.3l-3.1,1.5
	l-3.7-1.7l3.6-1.8L63.6,14.4z M61.4,12.2l2.2-1.1v2.2L61.4,12.2z M63.6,15.8v1.9l-2-0.9L63.6,15.8z M60.5,17.3l3.1,1.4h-6L60.5,17.3
	z M63.6,20.2v2.2l-2.1-1.1L63.6,20.2z M62.8,19.6l-2.3,1.2l-2.2-1.2H62.8z M63.6,23.4v0.4l-3.1,1.7l-3.7-1.9l3.7-1.9L63.6,23.4z
	 M63.6,24.9v2.2L61.5,26L63.6,24.9z M60.5,26.6l3.1,1.6v1.3l-2.5,1.1L57,28.4L60.5,26.6z M63.6,30.5V32l-1.5-0.8L63.6,30.5z
	 M63.6,33v0.7l-3,1.6l-3.6-1.9l4-1.8L63.6,33z M63.6,34.7v2.1l-2-1.1L63.6,34.7z M63.2,37.7H58l2.6-1.4L63.2,37.7z M63.4,38.7
	l-2.9,1.4l-2.8-1.4H63.4z M63.6,39.6v2.1l-2-1.1L63.6,39.6z M63.6,42.7v0.8l-3.1,1.9l-3.8-2.4l3.9-1.9L63.6,42.7z M63.6,44.6v2.8
	L61.4,46L63.6,44.6z M60.5,46.5l3.1,1.9l-6-0.1L60.5,46.5z M63.6,49.3v0.3l-2.7,2.2l-3.5-2.6L63.6,49.3z M60.6,6.4l3,3.5v0.2
	l-3.2,1.6l-3-1.6L60.6,6.4z M56.6,11l0.1-0.1l2.6,1.4l-2.8,1.4V11z M56.6,15.5l2.8,1.2l-2.8,1.3V15.5z M56.6,19.7l2.8,1.5l-2.8,1.4
	V19.7z M56.6,24.6l2.8,1.4l-2.8,1.5V24.6z M56.6,29.3l3.4,1.8l-3.4,1.5V29.3z M56.6,34.2l3,1.6l-3,1.6V34.2z M56.6,39.1l2.9,1.5
	l-2.9,1.4V39.1z M56.6,44.2l3,1.8l-2.3,1.4l0.1-0.3l-0.7,0.2V44.2z M56.9,50l3.3,2.5L56,55.9L56.9,50z M55.7,57.3l5.2-4.2l4.2,3.2
	l0.2,1.7l-4.8,3.4l-4.9-3.5L55.7,57.3z M55.5,58.8l4.2,3.1l-5.3,3.8L55.5,58.8z M54,68.3l5.5,3.3l-6.6,3.9L54,68.3z M52.6,77.8
	l7.2,3.6l-8.4,4.5L52.6,77.8z M51.1,87.2l8.1,3.6L50,94.8L51.1,87.2z M49.7,96.8l9.3,3.9l-10.6,4.2L49.7,96.8z M46.9,114.5l1.3-8.3
	l11.1,3.9L46.9,114.5z M60.7,109.6l-11.5-4l11-4.4l11.3,4.7L60.7,109.6z M73.6,114.1l-11.5-4l10.3-3.6L73.6,114.1z M72.3,105.1
	l-10.8-4.5l9.6-3.8L72.3,105.1z M60.2,100.1l-10.3-4.3l10.5-4.6l10.5,4.6L60.2,100.1z M70.8,94.8l-9.2-4l8.1-3.5L70.8,94.8z
	 M69.5,86.3l-9.1,4L52,86.6l8.8-4.7l8.7,4.3L69.5,86.3z M69.3,85.1l-7.5-3.8l6.5-3.5L69.3,85.1z M68.1,76.9l-7.3,3.9l-8-4l0-0.1
	l7.7-4.5l7.6,4.5L68.1,76.9z M67.9,75.4l-6.5-3.8l5.5-3.2L67.9,75.4z M66.7,67.4L60.5,71l-6.3-3.7l0-0.3l6.3-4.5l6.1,4.4L66.7,67.4z
	 M66.5,65.6l-5.1-3.7l4.1-3L66.5,65.6z M65.9,29.3l17.5,8.5H65.9V29.3z"/>
<path fill="#FFFFFF" d="M127.6,67.9l-13-6.3v-5.7h10.7v2.8h1.8v-2.8h0.3v-0.3l0.1-0.3l-12.5-6.1l-0.1,0.3l-3.9-4.5l-3.4,4H107v0.7
	l-12.7,5.8l0.1,0.3v0.3v2.8h1.8v-2.8H107v6l-12.7,6l0.1,0.3v0.1v0.2v2.8h1.8v-2.8H107v7.8l0.1,0l-7.6,49.5l1.5,0.2l1.1-6.9l9.2-3.2
	l8.6,3l1.1,7.1l1.5-0.2l-7.5-51.2h-0.2v-6.1h10.7v2.8h1.8v-2.8h0.3h0.3v-0.6H127.6z M114.7,50.4h1.2l-0.3-0.3l10.6,5.2h-11.6V50.4z
	 M107,67.9H95.8l11.2-5.3V67.9z M107,55.3H95.9l11.2-5.1V55.3z M114,79.2l-2.1-1.6l1.7-1.4L114,79.2z M113.2,52.5v0.2l-2.1,1
	l-2.4-1.1l2.4-1.2L113.2,52.5z M111.7,51l1.4-0.7v1.5L111.7,51z M113.2,53.4v1.2l-1.3-0.6L113.2,53.4z M111.1,54.4l2,0.9h-4
	L111.1,54.4z M113.2,56.3v1.4l-1.4-0.7L113.2,56.3z M112.6,55.9l-1.5,0.8l-1.4-0.8H112.6z M113.2,58.4v0.3l-2.1,1.1l-2.5-1.2
	l2.5-1.2L113.2,58.4z M113.2,59.4v1.4l-1.4-0.7L113.2,59.4z M111.1,60.5l2.1,1v0.9l-1.7,0.7l-2.7-1.4L111.1,60.5z M113.2,63.1v1
	l-1-0.5L113.2,63.1z M113.2,64.7v0.4l-2,1.1l-2.3-1.2l2.6-1.2L113.2,64.7z M113.2,65.9v1.4l-1.3-0.7L113.2,65.9z M112.9,67.9h-3.4
	l1.7-0.9L112.9,67.9z M113,68.5l-1.9,0.9l-1.8-0.9H113z M113.2,69.1v1.4l-1.3-0.7L113.2,69.1z M113.2,71.1v0.5l-2.1,1.3l-2.5-1.6
	l2.6-1.3L113.2,71.1z M113.2,72.4v1.8l-1.5-0.9L113.2,72.4z M111.1,73.7l2,1.2l-3.9-0.1L111.1,73.7z M113.2,75.5v0.2l-1.8,1.5
	l-2.3-1.7L113.2,75.5z M111.2,47.2l2,2.3v0.1l-2.1,1.1l-2-1L111.2,47.2z M108.6,50.2L108.6,50.2l1.8,0.8l-1.8,0.9V50.2z M108.6,53.2
	l1.8,0.8l-1.8,0.9V53.2z M108.6,56l1.9,1l-1.9,0.9V56z M108.6,59.2l1.9,0.9l-1.9,1V59.2z M108.6,62.3l2.2,1.2l-2.2,1V62.3z
	 M108.6,65.5l2,1.1l-2,1.1V65.5z M108.6,68.8l1.9,1l-1.9,1V68.8z M108.6,72.1l2,1.2l-1.5,1l0-0.2l-0.5,0.1V72.1z M108.7,75.9
	l2.2,1.6l-2.8,2.3L108.7,75.9z M108,80.7l3.4-2.8l2.8,2.1l0.2,1.1l-3.2,2.3l-3.2-2.3L108,80.7z M107.8,81.8l2.8,2l-3.5,2.5
	L107.8,81.8z M106.9,88l3.7,2.2l-4.4,2.6L106.9,88z M105.9,94.2l4.7,2.4l-5.6,3L105.9,94.2z M104.9,100.4l5.4,2.3l-6.1,2.7
	L104.9,100.4z M104,106.8l6.1,2.5l-7,2.8L104,106.8z M102.2,118.4l0.8-5.4l7.3,2.6L102.2,118.4z M111.3,115.2l-7.6-2.7l7.2-2.9
	l7.4,3.1L111.3,115.2z M119.7,118.2l-7.5-2.6l6.8-2.4L119.7,118.2z M118.9,112.3l-7.1-3l6.3-2.5L118.9,112.3z M110.9,109l-6.8-2.8
	l6.9-3l6.9,3L110.9,109z M117.9,105.4l-6-2.6l5.3-2.3L117.9,105.4z M117.1,99.8l-6,2.6l-5.6-2.4l5.8-3.1L117.1,99.8L117.1,99.8z
	 M116.9,99l-5-2.5l4.3-2.3L116.9,99z M116.1,93.6l-4.8,2.6l-5.3-2.6l0-0.1l5.1-3l5,2.9L116.1,93.6z M116,92.7l-4.3-2.5l3.6-2.1
	L116,92.7z M115.2,87.4l-4.1,2.4l-4.2-2.5l0-0.2l4.2-3l4,2.9L115.2,87.4z M115.1,86.2l-3.4-2.4l2.7-2L115.1,86.2z M114.7,62.3
	l11.5,5.6h-11.5V62.3z"/>
<path fill="#FFFFFF" d="M923.3,126c12.7,0,16-18.4,31.3-18.4c15.3,0,13.3,18.4,26,18.4"/>
<g>
	<path fill="#FFFFFF" d="M983.1,117.2c-2.4,0-4.4,1.9-4.4,4.4c0,2.4,1.9,4.4,4.4,4.4c2.4,0,4.4-1.9,4.4-4.4
		C987.4,119.1,985.5,117.2,983.1,117.2z M983.1,123.8c-1.2,0-2.3-1-2.3-2.3c0-1.2,1-2.3,2.3-2.3c1.2,0,2.3,1,2.3,2.3
		C985.3,122.8,984.3,123.8,983.1,123.8z"/>
	<path fill="#FFFFFF" d="M992.9,117.2c-2.4,0-4.4,1.9-4.4,4.4c0,2.4,1.9,4.4,4.4,4.4c2.4,0,4.4-1.9,4.4-4.4
		C997.3,119.1,995.3,117.2,992.9,117.2z M992.9,123.8c-1.2,0-2.3-1-2.3-2.3c0-1.2,1-2.3,2.3-2.3c1.2,0,2.3,1,2.3,2.3
		C995.2,122.8,994.2,123.8,992.9,123.8z"/>
	<path fill="#FFFFFF" d="M1008.6,117.2c-2.4,0-4.4,1.9-4.4,4.4c0,2.4,1.9,4.4,4.4,4.4c2.4,0,4.4-1.9,4.4-4.4
		C1012.9,119.1,1011,117.2,1008.6,117.2z M1008.6,123.8c-1.2,0-2.3-1-2.3-2.3c0-1.2,1-2.3,2.3-2.3s2.3,1,2.3,2.3
		C1010.8,122.8,1009.8,123.8,1008.6,123.8z"/>
	<path fill="#FFFFFF" d="M1019,115c0,0,0-1.4-0.3-2c-0.3-0.6-0.8-0.6-0.8-0.6l-4.7-1.5v0l-0.4-3.6c0-0.7-0.6-1.3-1.3-1.3h-7.7
		c-0.7,0-1.3,0.6-1.3,1.3v7.5h-1.2h-1.2h-0.3l1.6-7.4v-0.1h0l0.8-3.3l-2-0.5l-0.9,3.8h-22.1v8.9h5.9v0c2,0,3.8,1.2,4.6,2.9h0.6
		c0.8-1.7,2.6-2.9,4.6-2.9c2,0,3.8,1.2,4.6,2.9h0.8v4.5h2.7v0h2.5c-0.2-0.6-0.4-1.3-0.4-2c0-3,2.4-5.4,5.4-5.4s5.4,2.4,5.4,5.4
		c0,0.7-0.1,1.4-0.4,2h5.3v-6.6h-0.8V115H1019z M1005.6,113.4h-1.7v-5.5h1.7V113.4z M1006.9,113.4v-5.5h4.5l0.5,5.5H1006.9z"/>
</g>
</svg>
